HIERARCHY
ROOT Pelvis
{
	OFFSET 0.000000 0.000000 0.000000
	CHANNELS 6 Xposition Yposition Zposition Xrotation Yrotation Zrotation
	JOINT LeftUpLeg_virtual
	{
		OFFSET 0.000000 0.000000 0.000000
		CHANNELS 3 Xrotation Yrotation Zrotation
		JOINT LeftUpLeg
		{
			OFFSET 18.735201 -5.666702 -4.541200
			CHANNELS 3 Xrotation Yrotation Zrotation
			JOINT LeftLeg
			{
				OFFSET -0.021200 -31.938179 0.493100
				CHANNELS 3 Xrotation Yrotation Zrotation
				JOINT LeftFoot
				{
					OFFSET 0.021200 -31.938179 -4.336299
					CHANNELS 3 Xrotation Yrotation Zrotation
					JOINT LeftToeBase
					{
						OFFSET 0.943001 -26.722000 15.023500
						CHANNELS 3 Xrotation Yrotation Zrotation
						End Site
						{
							OFFSET 0 0 0
						}
					}
				}
			}
		}
	}
	JOINT RightUpLeg_virtual
	{
		OFFSET 0.000000 0.000000 0.000000
		CHANNELS 3 Xrotation Yrotation Zrotation
		JOINT RightUpLeg
		{
			OFFSET -18.735201 -5.666702 -4.541200
			CHANNELS 3 Xrotation Yrotation Zrotation
			JOINT RightLeg
			{
				OFFSET 0.018946 -31.938133 0.493100
				CHANNELS 3 Xrotation Yrotation Zrotation
				JOINT RightFoot
				{
					OFFSET -0.018946 -31.938126 -4.336299
					CHANNELS 3 Xrotation Yrotation Zrotation
					JOINT RightToeBase
					{
						OFFSET -0.943001 -26.722004 15.023500
						CHANNELS 3 Xrotation Yrotation Zrotation
						End Site
						{
							OFFSET 0 0 0
						}
					}
				}
			}
		}
	}
	JOINT Hips_virtual
	{
		OFFSET 0.000000 0.000000 0.000000
		CHANNELS 3 Xrotation Yrotation Zrotation
		JOINT Hips
		{
			OFFSET -0.000000 -0.000000 -0.000000
			CHANNELS 3 Xrotation Yrotation Zrotation
			JOINT Spine
			{
				OFFSET 0.000000 10.199997 -0.299500
				CHANNELS 3 Xrotation Yrotation Zrotation
				JOINT Spine1
				{
					OFFSET 0.000000 11.900002 -1.516600
					CHANNELS 3 Xrotation Yrotation Zrotation
					JOINT Spine2
					{
						OFFSET 0.000000 13.600006 -2.842500
						CHANNELS 3 Xrotation Yrotation Zrotation
						JOINT Neck_virtual
						{
							OFFSET 0.000000 0.000000 0.000000
							CHANNELS 3 Xrotation Yrotation Zrotation
							JOINT Neck
							{
								OFFSET 0.000000 9.624100 -2.890100
								CHANNELS 3 Xrotation Yrotation Zrotation
								JOINT Head
								{
									OFFSET 0.000000 14.068802 -1.351900
									CHANNELS 3 Xrotation Yrotation Zrotation
									End Site
									{
										OFFSET 0 0 0
									}
								}
							}
						}
						JOINT LeftShoulder_virtual
						{
							OFFSET 0.000000 0.000000 0.000000
							CHANNELS 3 Xrotation Yrotation Zrotation
							JOINT LeftShoulder
							{
								OFFSET 15.263000 10.923401 -0.547700
								CHANNELS 3 Xrotation Yrotation Zrotation
								JOINT LeftArm
								{
									OFFSET 25.438599 -2.830597 -13.032500
									CHANNELS 3 Xrotation Yrotation Zrotation
									JOINT LeftForeArm
									{
										OFFSET 29.960503 0.000000 0.000000
										CHANNELS 3 Xrotation Yrotation Zrotation
										JOINT LeftHand
										{
											OFFSET 27.849251 0.000000 0.000000
											CHANNELS 3 Xrotation Yrotation Zrotation
											End Site
											{
												OFFSET 0 0 0
											}
										}
									}
								}
							}
						}
						JOINT RightShoulder_virtual
						{
							OFFSET 0.000000 0.000000 0.000000
							CHANNELS 3 Xrotation Yrotation Zrotation
							JOINT RightShoulder
							{
								OFFSET -15.263000 10.923401 -0.547700
								CHANNELS 3 Xrotation Yrotation Zrotation
								JOINT RightArm
								{
									OFFSET -25.438599 -2.830597 -13.032500
									CHANNELS 3 Xrotation Yrotation Zrotation
									JOINT RightForeArm
									{
										OFFSET -29.960503 0.000000 0.000000
										CHANNELS 3 Xrotation Yrotation Zrotation
										JOINT RightHand
										{
											OFFSET -27.849251 0.000000 0.000000
											CHANNELS 3 Xrotation Yrotation Zrotation
											End Site
											{
												OFFSET 0 0 0
											}
										}
									}
								}
							}
						}
					}
				}
			}
		}
	}
}
MOTION
Frames: 4
Frame Time: 0.03333333
0.942838 84.282333 0.437820 0.000000 0.000000 0.000000 4.811094 -12.424415 0.283887 -35.973640 7.341192 16.618472 47.429844 -2.782358 -2.677497 -5.997383 -1.564448 -11.025560 0.000000 0.000000 0.000000 -1.325985 -3.568087 -1.926676 -32.919746 -3.859375 -17.323091 40.648156 2.123461 0.641037 -12.891886 -2.192686 14.103789 0.000000 0.000000 0.000000 -1.133412 -1.081288 0.246529 -3.407762 7.388054 -1.718951 13.294137 0.679715 0.826671 6.168437 0.352465 0.079395 0.000000 0.000000 0.000000 3.361462 0.318969 0.245958 -0.188239 0.173863 0.038970 0.000000 0.000000 0.000000 8.226417 -0.025428 0.170771 4.178672 -7.918179 -4.930987 9.947235 -29.654376 -31.335590 18.924675 -58.179203 13.832970 0.000000 0.000000 0.000000 9.325775 -0.674234 2.048380 6.272783 3.630089 12.385439 13.103115 31.292300 32.958163 34.175514 72.768221 -29.101428 0.000000 0.000000 0.000000 
-0.197813 84.543175 0.077000 0.000000 0.000000 0.000000 5.057418 -12.898537 0.591378 -35.634965 7.177556 16.835271 47.386650 -3.112500 -2.783157 -6.585507 -1.751894 -11.418703 0.000000 0.000000 0.000000 -1.409909 -3.355799 -1.297043 -33.073907 -3.992648 -16.657283 42.231688 2.589237 1.237203 -12.312158 -2.077992 15.334949 0.000000 0.000000 0.000000 -2.559442 -1.593749 -0.380042 -2.105047 8.108512 -1.415795 13.433538 0.316905 0.862780 6.269065 0.391500 0.420845 0.000000 0.000000 0.000000 2.925969 -0.115501 0.176090 -0.322961 0.071994 0.071740 0.000000 0.000000 0.000000 7.410806 -0.444706 -0.035822 4.154521 -8.560099 -6.513828 9.182626 -30.206805 -31.265700 20.521315 -58.735966 15.131698 0.000000 0.000000 0.000000 9.761782 -0.862700 2.364637 7.306892 2.713145 13.870596 15.331596 32.645664 30.040401 40.151035 74.988824 -35.430401 0.000000 0.000000 0.000000 
0.240807 83.805489 1.219440 0.000000 0.000000 0.000000 5.068874 -12.547349 1.155124 -35.615052 7.043639 17.434253 46.585555 -3.224015 -2.908003 -7.432830 -1.704380 -11.680161 0.000000 0.000000 0.000000 -1.994679 -3.491255 -1.799222 -33.841798 -3.740724 -17.180641 43.277813 2.065596 1.188287 -11.868615 -2.491961 14.878310 0.000000 0.000000 0.000000 -1.407829 -0.924366 0.307287 -3.635647 10.777113 -2.982883 14.383062 0.225701 0.536386 5.858748 0.315208 0.787390 0.000000 0.000000 0.000000 3.160241 -0.100191 0.226773 -0.339781 0.178927 -0.012532 0.000000 0.000000 0.000000 7.186790 -0.157284 -0.090516 3.690615 -9.215317 -7.822150 11.379977 -30.935665 -29.048303 22.315922 -57.435252 16.410948 0.000000 0.000000 0.000000 9.445531 -0.876484 2.629225 7.276107 1.815698 14.797364 14.064900 33.493240 30.615681 41.332733 75.940133 -37.526675 0.000000 0.000000 0.000000 
-0.745245 83.625412 0.004305 0.000000 0.000000 0.000000 5.169436 -12.134606 1.478825 -35.560075 7.045726 17.854480 46.593751 -3.629641 -3.162870 -7.603677 -1.919121 -12.346998 0.000000 0.000000 0.000000 -1.985327 -3.292506 -1.797209 -33.580004 -3.696999 -17.031722 43.037691 1.736708 1.124789 -12.005818 -2.759839 14.499450 0.000000 0.000000 0.000000 -1.827942 -0.334914 -0.278354 -0.243971 11.028037 -4.278322 13.765316 -0.240162 1.212665 6.325949 0.418072 0.570137 0.000000 0.000000 0.000000 3.003495 -0.159358 0.056398 -0.351785 0.219738 -0.176066 0.000000 0.000000 0.000000 7.607845 -0.452594 -0.006851 3.413800 -8.955094 -7.058675 12.261008 -32.532259 -28.080433 23.959759 -59.060461 17.862487 0.000000 0.000000 0.000000 9.635803 -1.014900 2.756430 7.099626 0.592189 15.847159 12.873732 32.029954 30.575984 40.901102 76.264239 -37.346901 0.000000 0.000000 0.000000 
